<svg xmlns="http://www.w3.org/2000/svg" xmlns:xlink="http://www.w3.org/1999/xlink" viewBox="0 0 433.49 35.77"><defs><style>.cls-1{fill:url(#linear-gradient);}.cls-10,.cls-11,.cls-12,.cls-2,.cls-7{fill:none;}.cls-3{clip-path:url(#clip-path);}.cls-4{mask:url(#mask);}.cls-5{fill:url(#linear-gradient-2);}.cls-6{fill:#f6f6f6;}.cls-7{stroke:#868786;stroke-width:0.49px;}.cls-10,.cls-11,.cls-12,.cls-7{stroke-linecap:round;}.cls-10,.cls-11,.cls-7{stroke-linejoin:round;}.cls-8{fill:#fff;}.cls-9{fill:#6e6e6e;}.cls-10,.cls-11{stroke:#6e6e6e;}.cls-10{stroke-width:0.78px;}.cls-11{stroke-width:0.63px;}.cls-12{stroke:#1e1e1e;stroke-miterlimit:10;stroke-width:0.5px;}.cls-13{font-size:14px;font-family:Helvetica;}</style><linearGradient id="linear-gradient" x1="42.8" y1="385" x2="44.63" y2="385" gradientTransform="translate(4434.3 -453.41) rotate(90) scale(10.95)" gradientUnits="userSpaceOnUse"><stop offset="0" stop-color="#4d4d4d"/><stop offset="0.21" stop-color="#4d4d4d"/><stop offset="0.22" stop-color="#525252"/><stop offset="0.3" stop-color="#8f8f8f"/><stop offset="0.38" stop-color="#bfbfbf"/><stop offset="0.44" stop-color="#e2e2e2"/><stop offset="0.5" stop-color="#f7f7f7"/><stop offset="0.53" stop-color="#fff"/><stop offset="0.59" stop-color="#fafafa"/><stop offset="0.65" stop-color="#ececec"/><stop offset="0.72" stop-color="#d5d5d5"/><stop offset="0.8" stop-color="#b4b4b4"/><stop offset="0.87" stop-color="#8b8b8b"/><stop offset="0.93" stop-color="#636363"/><stop offset="1" stop-color="#636363"/></linearGradient><clipPath id="clip-path"><path class="cls-2" d="M401.62,15.47v0l28.92,0h0c2.93.1,1.46,5-.13,10,1.55,5,3,9.92.13,10h0l-.59,0-29.27,0,.52,0a16.64,16.64,0,0,1-10.06-3.86l.06.1-86.62-.11-145.66-1-48.08-3.31L3.64,27.11A3.15,3.15,0,0,1,.24,24.3c0-1.54,1.53-2.8,3.4-2.8l300.94-2.33,86.62-.08-.06.23a16.68,16.68,0,0,1,10-3.86h.52"/></clipPath><mask id="mask" x="0.24" y="15.46" width="433.25" height="20.07" maskUnits="userSpaceOnUse"><rect class="cls-1" x="0.24" y="15.46" width="433.25" height="20.07"/></mask><linearGradient id="linear-gradient-2" x1="42.8" y1="385" x2="44.63" y2="385" gradientTransform="translate(4434.3 -453.41) rotate(90) scale(10.95)" gradientUnits="userSpaceOnUse"><stop offset="0"/><stop offset="0.21"/><stop offset="0.22" stop-color="#0c0c0c"/><stop offset="0.26" stop-color="#454545"/><stop offset="0.3" stop-color="#767676"/><stop offset="0.33" stop-color="#a0a0a0"/><stop offset="0.37" stop-color="#c3c3c3"/><stop offset="0.41" stop-color="#ddd"/><stop offset="0.45" stop-color="#f0f0f0"/><stop offset="0.49" stop-color="#fbfbfb"/><stop offset="0.53" stop-color="#fff"/><stop offset="0.6" stop-color="#fcfcfc"/><stop offset="0.66" stop-color="#f2f2f2"/><stop offset="0.7" stop-color="#e2e2e2"/><stop offset="0.75" stop-color="#cbcbcb"/><stop offset="0.79" stop-color="#aeaeae"/><stop offset="0.83" stop-color="#898989"/><stop offset="0.87" stop-color="#5e5e5e"/><stop offset="0.9" stop-color="#2e2e2e"/><stop offset="0.93"/><stop offset="1"/></linearGradient></defs><title>Flex28_electrode_array_MEDEL</title><g id="EA"><g class="cls-3"><g class="cls-4"><rect class="cls-5" x="0.24" y="15.46" width="433.25" height="20.07"/></g></g><path class="cls-6" d="M162,20.16l-6,.07c0,1.33,2.77,2.39,6.08,2.35h2.42c3.34,0,6-1.15,6-2.49l-6,.07Z"/><path class="cls-6" d="M45.48,21l-6,.07c0,1.52,2.78,2.72,6.09,2.68H48c3.33,0,6-1.3,5.95-2.82l-6,.07Z"/><path class="cls-6" d="M74.73,20.7l-6,.07c0,1.52,2.78,2.72,6.09,2.68H77.2c3.34,0,6-1.3,6-2.82l-6,.07Z"/><path class="cls-6" d="M103.91,20.49l-6,.06c0,1.52,2.78,2.72,6.09,2.69h2.42c3.34,0,6-1.3,6-2.82l-6,.07Z"/><path class="cls-6" d="M133.3,20.18l-6.05.07c0,1.51,2.78,2.71,6.1,2.68h2.42c3.33,0,6-1.3,5.95-2.82l-6,.07Z"/><line class="cls-7" x1="401.62" y1="15.48" x2="401.62" y2="35.47"/><path class="cls-7" d="M430.43,25.49c-1.49,5-3,10,0,10h.11"/><line class="cls-7" x1="391.14" y1="19.33" x2="391.14" y2="31.63"/><path class="cls-7" d="M412.24,15.49a3.49,3.49,0,0,1,4.12-3,3.63,3.63,0,0,1,2.72,3"/><path class="cls-6" d="M16.12,21.4l-6,.07c0,1.52,2.78,2.72,6.09,2.68h2.42c3.34,0,6-1.29,6-2.81l-6,.07Z"/><path class="cls-6" d="M191.53,20l-6.05.07c0,1.33,2.78,2.39,6.09,2.35H194c3.33,0,6-1.15,6-2.49L194,20Z"/><path class="cls-6" d="M220.6,19.78l-6,.07c0,1.34,2.77,2.39,6.08,2.35h2.42c3.34,0,6-1.15,6-2.49l-6,.07Z"/><path class="cls-6" d="M249.85,19.53l-6,.07c0,1.33,2.78,2.39,6.09,2.35h2.42c3.33,0,6-1.15,6-2.49l-6,.07Z"/><path class="cls-6" d="M279.42,19.3l-6.05.07c0,1.33,2.78,2.39,6.09,2.35h2.42c3.34,0,6-1.15,6-2.49l-6,.07Z"/><path class="cls-6" d="M308.64,19.11l-6.05.06c0,1.34,2.78,2.4,6.09,2.36h2.42c3.34,0,6-1.15,6-2.49l-6,.07Z"/><path class="cls-6" d="M338.09,19.12l-6,.07c0,1.34,2.78,2.39,6.09,2.36h2.42c3.33,0,6-1.16,6-2.49l-6,.06Z"/><path class="cls-8" d="M162,30.61l-6-.07c0-1.33,2.77-2.39,6.08-2.35h2.42c3.34,0,6,1.15,6,2.49l-6-.07Z"/><path class="cls-8" d="M191.64,30.72l-6-.06c0-1.34,2.78-2.39,6.09-2.36h2.42c3.33,0,6,1.15,6,2.49l-6-.07Z"/><path class="cls-8" d="M220.41,30.79l-6-.07c0-1.33,2.78-2.39,6.09-2.35h2.42c3.34,0,6,1.15,6,2.49l-6-.07Z"/><path class="cls-8" d="M249.65,31.11l-6-.07c0-1.33,2.77-2.39,6.08-2.35h2.42c3.34,0,6,1.15,6,2.49l-6-.07Z"/><path class="cls-8" d="M279.12,31.28l-6.05-.07c0-1.33,2.78-2.39,6.09-2.35h2.42c3.33,0,6,1.15,6,2.49l-6-.07Z"/><path class="cls-8" d="M308.39,31.38l-6.05-.07c0-1.34,2.78-2.39,6.09-2.36h2.42c3.34,0,6,1.16,6,2.49l-6-.06Z"/><path class="cls-8" d="M337.19,31.44l-6.05-.07c0-1.33,2.78-2.39,6.09-2.35h2.42c3.33,0,6,1.15,6,2.49l-6-.07Z"/><path class="cls-7" d="M391.2,31.72l-86.62-.11-145.66-1-48.08-3.31L3.64,27.11A3.15,3.15,0,0,1,.24,24.3c0-1.54,1.53-2.8,3.4-2.8l300.94-2.33,86.62-.08-.06.23a16.45,16.45,0,0,1,10.48-3.85h0l28.92,0h0c2.93.09,1.46,5-.13,10,1.55,5,3,9.92.13,10h0l-.59,0-29.27,0,.94,0a16.38,16.38,0,0,1-10.48-3.84Z"/><path class="cls-9" d="M43.08,21.54c0,.54,1.66,1,3.62.95s3.57-.46,3.55-1Z"/><path class="cls-10" d="M43.08,21.54c0,.54,1.66,1,3.62.95s3.57-.46,3.55-1Z"/><path class="cls-9" d="M14,21.79c0,.54,1.66,1,3.62,1s3.57-.47,3.54-1Z"/><path class="cls-10" d="M14,21.79c0,.54,1.66,1,3.62,1s3.57-.47,3.54-1Z"/><path class="cls-9" d="M72.34,21.29c0,.54,1.65,1,3.62.95s3.57-.47,3.54-1Z"/><path class="cls-10" d="M72.34,21.29c0,.54,1.65,1,3.62.95s3.57-.47,3.54-1Z"/><path class="cls-9" d="M101.52,21.07c0,.54,1.66,1,3.62.95s3.57-.46,3.54-1Z"/><path class="cls-10" d="M101.52,21.07c0,.54,1.66,1,3.62.95s3.57-.46,3.54-1Z"/><path class="cls-9" d="M130.9,20.76c0,.54,1.66,1,3.62.95s3.57-.46,3.55-1Z"/><path class="cls-10" d="M130.9,20.76c0,.54,1.66,1,3.62.95s3.57-.46,3.55-1Z"/><path class="cls-9" d="M160.86,20.39c0,.54,1.09,1,2.37,1s2.32-.46,2.3-1Z"/><path class="cls-11" d="M160.86,20.39c0,.54,1.09,1,2.37,1s2.32-.46,2.3-1Z"/><path class="cls-9" d="M190.35,20.22c0,.55,1.09,1,2.37,1s2.32-.46,2.3-1Z"/><path class="cls-11" d="M190.35,20.22c0,.55,1.09,1,2.37,1s2.32-.46,2.3-1Z"/><path class="cls-9" d="M219.43,20c0,.54,1.08,1,2.37,1s2.32-.46,2.3-1Z"/><path class="cls-11" d="M219.43,20c0,.54,1.08,1,2.37,1s2.32-.46,2.3-1Z"/><path class="cls-9" d="M248.67,19.76c0,.54,1.09,1,2.38,1s2.32-.46,2.3-1Z"/><path class="cls-11" d="M248.67,19.76c0,.54,1.09,1,2.38,1s2.32-.46,2.3-1Z"/><path class="cls-9" d="M278.24,19.53c0,.54,1.09,1,2.38,1s2.32-.46,2.3-1Z"/><path class="cls-11" d="M278.24,19.53c0,.54,1.09,1,2.38,1s2.32-.46,2.3-1Z"/><path class="cls-9" d="M165.87,30.56c0-.54-1-1-2.32-1s-2.35.43-2.35,1Z"/><path class="cls-11" d="M165.87,30.56c0-.54-1-1-2.32-1s-2.35.43-2.35,1Z"/><path class="cls-9" d="M195.47,30.69c0-.54-1-1-2.32-1s-2.34.43-2.35,1Z"/><path class="cls-11" d="M195.47,30.69c0-.54-1-1-2.32-1s-2.34.43-2.35,1Z"/><path class="cls-9" d="M224.25,30.77c0-.54-1-1-2.33-1s-2.34.43-2.35,1Z"/><path class="cls-11" d="M224.25,30.77c0-.54-1-1-2.33-1s-2.34.43-2.35,1Z"/><path class="cls-9" d="M253.49,31.06c0-.54-1-1-2.32-1s-2.35.43-2.35,1Z"/><path class="cls-11" d="M253.49,31.06c0-.54-1-1-2.32-1s-2.35.43-2.35,1Z"/><path class="cls-9" d="M307.46,19.34c0,.54,1.09,1,2.38,1s2.32-.46,2.3-1Z"/><path class="cls-11" d="M307.46,19.34c0,.54,1.09,1,2.38,1s2.32-.46,2.3-1Z"/><path class="cls-9" d="M336.91,19.36c0,.54,1.09,1,2.38,1s2.32-.46,2.3-1Z"/><path class="cls-11" d="M336.91,19.36c0,.54,1.09,1,2.38,1s2.32-.46,2.3-1Z"/><path class="cls-9" d="M312.23,31.36c0-.54-1-1-2.33-1s-2.34.43-2.35,1Z"/><path class="cls-11" d="M312.23,31.36c0-.54-1-1-2.33-1s-2.34.43-2.35,1Z"/><path class="cls-9" d="M341,31.42c0-.54-1-1-2.32-1s-2.34.43-2.35,1Z"/><path class="cls-11" d="M341,31.42c0-.54-1-1-2.32-1s-2.34.43-2.35,1Z"/><path class="cls-9" d="M283,31.23c0-.54-1-1-2.32-1s-2.34.43-2.35,1Z"/><path class="cls-11" d="M283,31.23c0-.54-1-1-2.32-1s-2.34.43-2.35,1Z"/></g><g id="Waves"><path class="cls-12" d="M17.37,20.88C17.29,9.54,23.8.31,31.91.25s14.75,9.1,14.83,20.44"/><path class="cls-12" d="M46.74,20.88C46.66,9.54,53.13.3,61.18.25S75.82,9.35,75.9,20.69"/><path class="cls-12" d="M75.9,20.69C75.82,9.45,82.34.3,90.47.25s14.77,9,14.84,20.24"/><path class="cls-12" d="M105.31,20.71C105.24,9.47,111.74.3,119.83.25s14.72,9,14.8,20.27"/><text class="cls-13" transform="translate(28.07 17.61)">1</text><text class="cls-13" transform="translate(57.34 17.61)">2</text><text class="cls-13" transform="translate(86.62 17.61)">3</text><text class="cls-13" transform="translate(115.99 17.61)">4</text></g></svg>